<svg xmlns="http://www.w3.org/2000/svg" viewBox="0 0 100 100" preserveAspectRatio="none"><g fill="#ffffff"><path d="M50.5 50C50.6 50.1 50.7 50.1 50.8 50.3C50.9 50.5 51.1 50.7 51.1 51.1C51.2 51.4 51.3 51.9 51.1 52.5C51 53.1 50.9 53.9 50.2 54.9C49.6 55.8 48.9 57 47.2 58.1C45.5 59.2 43.6 60.8 40.1 61.5C36.6 62.2 32.5 63.5 26.3 62.4C20.1 61.3 12.4 60.7 3 54.8C-6.4 48.9 -18.6 42.9 -30.2 27.1C-41.8 11.2 -59.3 -24.6 -66.5 -40.2C-73.8 -55.7 -72.7 -62 -73.9 -66.4L-39.6 -94.5C-39.5 -89.9 -42.2 -84.2 -39.2 -67.2C-36.2 -50.3 -28.7 -11.2 -21.6 7.1C-14.5 25.4 -4.2 34.3 3.3 42.5C10.9 50.6 18.2 53.2 23.9 55.8C29.6 58.5 33.9 58.3 37.5 58.6C41 58.8 43.3 57.8 45.2 57.1C47.1 56.5 48.1 55.5 49 54.8C49.9 54 50.2 53.3 50.5 52.7C50.8 52.1 50.8 51.7 50.8 51.3C50.9 51 50.8 50.7 50.7 50.5C50.7 50.3 50.5 50.2 50.5 50.1Z"></path><path d="M50.4 50.3C50.5 50.3 50.5 50.5 50.5 50.7C50.5 50.9 50.6 51.2 50.4 51.5C50.3 51.8 50.2 52.3 49.7 52.7C49.3 53.2 48.8 53.8 47.8 54.3C46.8 54.8 45.5 55.5 43.5 55.6C41.5 55.8 39.1 56.2 35.7 55C32.3 53.9 28.1 52.9 23.3 48.9C18.5 44.8 12.1 40.5 6.9 30.6C1.7 20.8 -5.9 9.5 -8 -10C-10.1 -29.5 -7.3 -69.2 -5.9 -86.4C-4.4 -103.5 -0.3 -108.3 0.9 -112.7L44.7 -119.9C42.4 -116 37.2 -112.3 31.3 -96.2C25.5 -80 12.5 -42.3 9.5 -22.9C6.5 -3.6 10.9 9.3 13.4 20.1C15.9 31 20.9 36.8 24.5 42C28 47.2 31.9 49.2 34.9 51.2C37.9 53.1 40.3 53.4 42.3 53.8C44.3 54.2 45.6 53.8 46.7 53.6C47.9 53.4 48.5 52.9 49 52.6C49.6 52.2 49.8 51.9 50 51.6C50.3 51.3 50.3 51 50.3 50.8C50.4 50.6 50.4 50.4 50.4 50.4Z"></path><path d="M50.3 50.4C50.2 50.5 50.2 50.7 50.1 50.9C50 51.1 49.9 51.3 49.6 51.5C49.3 51.7 49 52.1 48.4 52.2C47.8 52.4 47.1 52.7 45.9 52.6C44.8 52.5 43.4 52.6 41.6 51.7C39.8 50.8 37.5 49.9 35.1 47.2C32.7 44.5 29.5 41.6 27.4 35.7C25.3 29.7 22 22.8 22.3 11.7C22.7 0.6 21.8 -13 29.7 -30.9C37.7 -48.9 60 -81.9 69.8 -96C79.6 -110.1 85.7 -112.3 88.8 -115.5L130.3 -99.8C126.4 -97.5 120.1 -97 106.9 -85.9C93.8 -74.8 63.7 -48.7 51.4 -33.4C39.1 -18.1 36.5 -4.8 33.2 5.8C30 16.5 31.4 24 31.9 30.3C32.4 36.6 34.7 40.3 36.3 43.4C37.9 46.6 39.9 48.1 41.4 49.4C42.9 50.8 44.3 51.1 45.4 51.5C46.4 51.9 47.2 51.8 47.9 51.8C48.5 51.7 48.9 51.5 49.3 51.4C49.6 51.2 49.8 51 49.9 50.9C50 50.7 50.1 50.5 50.1 50.5Z"></path><path d="M50 50.5C49.9 50.6 49.9 50.7 49.7 50.8C49.5 50.9 49.3 51.1 48.9 51.1C48.6 51.2 48.1 51.3 47.5 51.1C46.9 51 46.1 50.9 45.1 50.2C44.2 49.6 43 48.9 41.9 47.2C40.8 45.5 39.2 43.6 38.5 40.1C37.8 36.6 36.5 32.5 37.6 26.3C38.7 20.1 39.3 12.4 45.2 3C51.1 -6.4 57.1 -18.6 72.9 -30.2C88.8 -41.8 124.6 -59.3 140.2 -66.5C155.7 -73.8 162 -72.7 166.4 -73.9L194.5 -39.6C189.9 -39.5 184.2 -42.2 167.2 -39.2C150.3 -36.2 111.2 -28.7 92.9 -21.6C74.6 -14.5 65.7 -4.2 57.5 3.3C49.4 10.9 46.8 18.2 44.2 23.9C41.5 29.6 41.7 33.9 41.4 37.5C41.2 41 42.2 43.3 42.9 45.2C43.5 47.1 44.5 48.1 45.2 49C46 49.9 46.7 50.2 47.3 50.5C47.9 50.8 48.3 50.8 48.7 50.8C49 50.9 49.3 50.8 49.5 50.7C49.7 50.7 49.8 50.5 49.9 50.5Z"></path><path d="M49.8 50.4C49.7 50.5 49.5 50.5 49.3 50.5C49.1 50.5 48.8 50.6 48.5 50.4C48.2 50.3 47.7 50.2 47.3 49.7C46.8 49.3 46.2 48.8 45.7 47.8C45.2 46.8 44.5 45.5 44.4 43.5C44.2 41.5 43.8 39.1 45 35.7C46.1 32.3 47.1 28.1 51.1 23.3C55.2 18.5 59.5 12.1 69.4 6.9C79.2 1.7 90.5 -5.9 110 -8C129.5 -10.1 169.2 -7.3 186.4 -5.9C203.5 -4.4 208.3 -0.3 212.7 0.9L219.9 44.7C216 42.4 212.3 37.2 196.2 31.3C180 25.5 142.3 12.5 122.9 9.5C103.6 6.5 90.7 10.9 79.9 13.4C69 15.9 63.2 20.9 58 24.5C52.8 28 50.8 31.9 48.8 34.9C46.9 37.9 46.6 40.3 46.2 42.3C45.8 44.3 46.2 45.6 46.4 46.7C46.6 47.9 47.1 48.5 47.4 49C47.8 49.6 48.1 49.8 48.4 50C48.7 50.3 49 50.3 49.2 50.3C49.4 50.4 49.6 50.4 49.6 50.4Z"></path><path d="M49.6 50.3C49.5 50.2 49.3 50.2 49.1 50.1C48.9 50 48.7 49.9 48.5 49.6C48.3 49.3 47.9 49 47.8 48.4C47.6 47.8 47.3 47.1 47.4 45.9C47.5 44.8 47.4 43.4 48.3 41.6C49.2 39.8 50.1 37.5 52.8 35.1C55.5 32.7 58.4 29.5 64.3 27.4C70.3 25.3 77.2 22 88.3 22.3C99.4 22.7 113 21.8 130.9 29.7C148.9 37.7 181.9 60 196 69.8C210.1 79.6 212.3 85.7 215.5 88.8L199.8 130.3C197.5 126.4 197 120.1 185.9 106.9C174.8 93.8 148.7 63.7 133.4 51.4C118.1 39.1 104.8 36.5 94.2 33.2C83.5 30 76 31.4 69.7 31.9C63.4 32.4 59.7 34.7 56.6 36.3C53.4 37.9 51.9 39.9 50.6 41.4C49.2 42.9 48.9 44.3 48.5 45.4C48.1 46.4 48.2 47.2 48.2 47.9C48.3 48.5 48.5 48.9 48.6 49.3C48.8 49.6 49 49.8 49.1 49.9C49.3 50 49.5 50.1 49.5 50.1Z"></path><path d="M49.5 50C49.4 49.9 49.3 49.9 49.2 49.7C49.1 49.5 48.9 49.3 48.9 48.9C48.8 48.6 48.7 48.1 48.9 47.5C49 46.9 49.1 46.1 49.8 45.1C50.4 44.2 51.1 43 52.8 41.9C54.5 40.8 56.4 39.2 59.9 38.5C63.4 37.8 67.5 36.5 73.7 37.6C79.9 38.7 87.6 39.3 97 45.2C106.4 51.1 118.6 57.1 130.2 72.9C141.8 88.8 159.3 124.6 166.5 140.2C173.8 155.7 172.7 162 173.9 166.4L139.6 194.5C139.5 189.9 142.2 184.2 139.2 167.2C136.2 150.3 128.7 111.2 121.6 92.9C114.5 74.6 104.2 65.7 96.7 57.5C89.1 49.4 81.8 46.8 76.1 44.2C70.4 41.5 66.1 41.7 62.5 41.4C59 41.2 56.7 42.2 54.8 42.9C52.9 43.5 51.9 44.5 51 45.2C50.1 46 49.8 46.7 49.5 47.3C49.2 47.9 49.2 48.3 49.2 48.7C49.1 49 49.2 49.3 49.3 49.5C49.3 49.7 49.5 49.8 49.5 49.9Z"></path><path d="M49.6 49.8C49.5 49.7 49.5 49.5 49.5 49.3C49.5 49.1 49.4 48.8 49.6 48.5C49.7 48.2 49.8 47.7 50.3 47.3C50.7 46.8 51.2 46.2 52.2 45.7C53.2 45.2 54.5 44.5 56.5 44.4C58.5 44.2 60.9 43.8 64.3 45C67.7 46.1 71.9 47.1 76.7 51.1C81.5 55.2 87.9 59.5 93.1 69.4C98.3 79.2 105.9 90.5 108 110C110.1 129.5 107.3 169.2 105.9 186.4C104.4 203.5 100.3 208.3 99.1 212.7L55.3 219.9C57.6 216 62.8 212.3 68.7 196.2C74.5 180 87.5 142.3 90.5 122.9C93.5 103.6 89.1 90.7 86.6 79.9C84.1 69 79.1 63.2 75.5 58C72 52.8 68.1 50.8 65.1 48.8C62.1 46.9 59.7 46.6 57.7 46.2C55.7 45.8 54.4 46.2 53.3 46.4C52.1 46.6 51.5 47.1 51 47.4C50.4 47.8 50.2 48.1 50 48.4C49.7 48.7 49.7 49 49.7 49.2C49.6 49.4 49.6 49.6 49.6 49.6Z"></path><path d="M49.8 49.6C49.8 49.5 49.8 49.3 49.9 49.1C50 48.9 50.1 48.7 50.4 48.5C50.7 48.3 51 47.9 51.6 47.8C52.2 47.6 52.9 47.3 54.1 47.4C55.2 47.5 56.6 47.4 58.4 48.3C60.2 49.2 62.5 50.1 64.9 52.8C67.3 55.5 70.5 58.4 72.6 64.3C74.7 70.3 78 77.2 77.7 88.3C77.3 99.4 78.2 113 70.3 130.9C62.3 148.9 40 181.9 30.2 196C20.4 210.1 14.3 212.3 11.2 215.5L-30.3 199.8C-26.4 197.5 -20.1 197 -6.9 185.9C6.2 174.8 36.3 148.7 48.6 133.4C60.9 118.1 63.5 104.8 66.8 94.2C70 83.5 68.6 76 68.1 69.7C67.6 63.4 65.3 59.7 63.7 56.6C62.1 53.4 60.1 51.9 58.6 50.6C57.1 49.2 55.7 48.9 54.6 48.5C53.6 48.1 52.8 48.2 52.1 48.2C51.5 48.3 51.1 48.5 50.7 48.6C50.4 48.8 50.2 49 50.1 49.1C50 49.3 49.9 49.5 49.9 49.5Z"></path><path d="M50 49.5C50.1 49.4 50.1 49.3 50.3 49.2C50.5 49.1 50.7 48.9 51.1 48.9C51.4 48.8 51.9 48.7 52.5 48.9C53.1 49 53.9 49.1 54.9 49.8C55.8 50.4 57 51.1 58.1 52.8C59.2 54.5 60.8 56.4 61.5 59.9C62.2 63.4 63.5 67.5 62.4 73.7C61.3 79.9 60.7 87.6 54.8 97C48.9 106.4 42.9 118.6 27.1 130.2C11.2 141.8 -24.6 159.3 -40.2 166.5C-55.7 173.8 -62 172.7 -66.4 173.9L-94.5 139.6C-89.9 139.5 -84.2 142.2 -67.2 139.2C-50.3 136.2 -11.2 128.7 7.1 121.6C25.4 114.5 34.3 104.2 42.5 96.7C50.6 89.1 53.2 81.8 55.8 76.1C58.5 70.4 58.3 66.1 58.6 62.5C58.8 59 57.8 56.7 57.1 54.8C56.5 52.9 55.5 51.9 54.8 51C54 50.1 53.3 49.8 52.7 49.5C52.1 49.2 51.7 49.2 51.3 49.2C51 49.1 50.7 49.2 50.5 49.3C50.3 49.3 50.2 49.5 50.1 49.5Z"></path><path d="M50.3 49.6C50.3 49.5 50.5 49.5 50.7 49.5C50.9 49.5 51.2 49.4 51.5 49.6C51.8 49.7 52.3 49.8 52.7 50.3C53.2 50.7 53.8 51.2 54.3 52.2C54.8 53.2 55.5 54.5 55.6 56.5C55.8 58.5 56.2 60.9 55 64.3C53.9 67.7 52.9 71.9 48.9 76.7C44.8 81.5 40.5 87.9 30.6 93.1C20.8 98.3 9.5 105.9 -10 108C-29.5 110.1 -69.2 107.3 -86.4 105.9C-103.5 104.4 -108.3 100.3 -112.7 99.1L-119.9 55.3C-116 57.6 -112.3 62.8 -96.2 68.7C-80 74.5 -42.3 87.5 -22.9 90.5C-3.6 93.5 9.3 89.1 20.1 86.6C31 84.1 36.8 79.1 42 75.5C47.2 72 49.2 68.1 51.2 65.1C53.1 62.1 53.4 59.7 53.8 57.7C54.2 55.7 53.8 54.4 53.6 53.3C53.4 52.1 52.9 51.5 52.6 51C52.2 50.4 51.9 50.2 51.6 50C51.3 49.7 51 49.7 50.8 49.7C50.6 49.6 50.4 49.6 50.4 49.6Z"></path><path d="M50.4 49.8C50.5 49.8 50.7 49.8 50.9 49.9C51.1 50 51.3 50.1 51.5 50.4C51.7 50.7 52.1 51 52.2 51.6C52.4 52.2 52.7 52.9 52.6 54.1C52.5 55.2 52.6 56.6 51.7 58.4C50.8 60.2 49.9 62.5 47.2 64.9C44.5 67.3 41.6 70.5 35.7 72.6C29.7 74.7 22.8 78 11.7 77.7C0.6 77.3 -13 78.2 -30.9 70.3C-48.9 62.3 -81.9 40 -96 30.2C-110.1 20.4 -112.3 14.3 -115.5 11.2L-99.8 -30.3C-97.5 -26.4 -97 -20.1 -85.9 -6.9C-74.8 6.2 -48.7 36.3 -33.4 48.6C-18.1 60.9 -4.8 63.5 5.8 66.8C16.5 70 24 68.6 30.3 68.1C36.6 67.6 40.3 65.3 43.4 63.7C46.6 62.1 48.1 60.1 49.4 58.6C50.8 57.1 51.1 55.7 51.5 54.6C51.9 53.6 51.8 52.8 51.8 52.1C51.7 51.5 51.5 51.1 51.4 50.7C51.2 50.4 51 50.2 50.9 50.1C50.7 50 50.5 49.9 50.5 49.9Z"></path></g></svg>